<svg xmlns="http://www.w3.org/2000/svg" viewBox="0 0 460 100" fill="none">
<g transform="translate(8 14)">
<path d="M36 8 C28 14 24 22 28 32 C30 36 34 38 38 36 L40 34 L42 36 C46 38 50 36 52 32 C56 22 52 14 44 8 C42 6 38 6 36 8 Z" fill="#0F2A4F"/>
<path d="M10 70 L34 36 L40 38 L22 72 Z" fill="#0F2A4F"/>
<path d="M70 70 L46 36 L40 38 L58 72 Z" fill="#14B8A6"/>
<rect x="28" y="50" width="24" height="3" fill="#14B8A6"/>
<rect x="26" y="58" width="28" height="3" fill="#0F2A4F"/>
<rect x="24" y="66" width="32" height="3" fill="#14B8A6"/>
</g>
<g font-family="Inter, system-ui, sans-serif" font-weight="700" font-size="56">
<text x="100" y="68" fill="#0F2A4F">Whale</text>
<text x="262" y="68" fill="#14B8A6">Rail</text>
</g>
</svg>
